<svg version="1.1" id="Layer_1" xmlns="http://www.w3.org/2000/svg" xmlns:xlink="http://www.w3.org/1999/xlink" x="0px" y="0px"
	 width="100%" viewBox="0 0 1024 1024" enable-background="new 0 0 1024 1024" xml:space="preserve">
<path fill="#FFFFFF" opacity="1.000000" stroke="none" 
	d="
M584.000000,1025.000000 
	C389.333344,1025.000000 195.166672,1025.000000 1.000000,1025.000000 
	C1.000000,683.666687 1.000000,342.333344 1.000000,1.000000 
	C342.333344,1.000000 683.666687,1.000000 1025.000000,1.000000 
	C1025.000000,342.333344 1025.000000,683.666687 1025.000000,1025.000000 
	C878.166687,1025.000000 731.333313,1025.000000 584.000000,1025.000000 
M470.389740,375.148438 
	C470.389740,375.148438 470.429749,375.185638 470.981201,374.617249 
	C470.190613,374.110077 469.405579,373.171051 468.608643,373.160889 
	C457.631836,373.020752 446.653290,372.978882 435.675537,373.016296 
	C434.707062,373.019592 433.741089,373.745941 432.681488,374.378082 
	C432.681488,374.378082 432.878387,374.545959 432.885681,374.681732 
	C432.885681,374.681732 432.788269,374.776611 432.481476,375.564423 
	C432.521851,389.998718 432.562195,404.433044 432.151489,419.573914 
	C431.357239,419.657349 430.486755,419.996246 429.780273,419.785461 
	C420.832092,417.115875 411.784760,415.370880 402.365479,415.907776 
	C393.923553,416.388916 385.418182,416.166901 377.029816,417.076141 
	C366.353119,418.233368 355.766052,420.217438 345.060791,420.937469 
	C345.060791,353.058685 345.060791,285.179901 345.060791,217.370300 
	C336.592102,217.370300 328.803253,217.370300 320.320892,217.099976 
	C321.489471,216.011993 322.508728,214.674454 323.848633,213.872803 
	C351.725555,197.194336 379.632263,180.565567 407.548279,163.952560 
	C418.173950,157.629120 428.837494,151.369385 439.922882,144.821243 
	C440.110138,148.122101 440.271515,150.967133 440.458130,154.256897 
	C442.217407,153.270981 443.496918,152.591080 444.740784,151.851288 
	C466.657654,138.816635 488.610596,125.841545 510.423279,112.634705 
	C512.694885,111.259315 513.972168,111.375320 516.025024,112.649483 
	C530.658813,121.732635 545.352417,130.719955 560.063354,139.678024 
	C568.055725,144.544861 576.119385,149.294601 585.021973,154.618042 
	C585.021973,150.686493 585.021973,147.849762 585.021973,144.428024 
	C625.080627,168.716492 664.472473,192.600662 704.752075,217.023117 
	C701.728271,217.023117 699.800110,216.951447 697.878906,217.036697 
	C692.335144,217.282745 686.794189,217.592026 681.041504,218.823029 
	C681.051941,286.319183 681.062439,353.815369 680.151978,421.538116 
	C671.806641,420.414734 663.352966,419.803711 655.137512,418.066162 
	C635.196472,413.848694 615.494263,413.106964 595.236511,419.980804 
	C594.487488,419.983337 593.738403,419.985870 592.993347,420.002808 
	C592.993347,420.002808 593.003113,420.014069 593.017334,419.074158 
	C593.017334,403.824768 593.017334,388.575378 593.017334,373.061554 
	C579.865784,373.061554 567.255371,373.054871 554.645142,373.103394 
	C554.354126,373.104492 554.065430,373.728638 553.832458,374.771729 
	C554.309998,375.430878 554.755066,376.116516 555.269714,376.745300 
	C573.117004,398.552246 590.489807,420.589111 591.123230,451.163849 
	C603.067993,445.181610 615.239563,441.240204 628.191223,442.142822 
	C638.720154,442.876617 649.129517,445.201782 659.633240,446.483002 
	C663.805908,446.991974 668.341980,449.058044 672.120300,444.783966 
	C673.307861,443.440613 675.339966,442.374115 677.123718,442.108246 
	C685.188293,440.906281 693.750854,441.332336 701.286621,438.723785 
	C711.018982,435.354980 720.010254,429.777954 729.164612,424.861298 
	C731.072327,423.836670 732.990356,421.800140 733.733459,419.796082 
	C742.065979,397.322845 746.918030,373.983002 748.858704,350.185730 
	C750.250183,333.123657 750.345520,315.928162 750.398743,298.790253 
	C750.525391,257.977234 750.229065,217.162994 750.279419,176.349457 
	C750.284302,172.384171 748.781921,170.514679 745.373230,168.852310 
	C717.249329,155.136505 689.208496,141.250305 661.152893,127.394524 
	C612.698242,103.464272 564.265076,79.490349 515.748352,55.686653 
	C513.861511,54.760895 510.792725,54.557907 508.965790,55.443680 
	C467.873260,75.367027 426.873901,95.482590 385.865234,115.578781 
	C360.191315,128.160217 334.479034,140.665070 308.887695,153.412415 
	C297.103485,159.282242 285.567871,165.651108 273.217560,172.337372 
	C273.213043,203.894119 273.208527,235.450882 273.042816,267.929199 
	C273.368347,282.919373 273.693848,297.909576 273.895416,313.842682 
	C274.566437,325.446136 275.111359,337.058533 275.935242,348.651123 
	C277.550629,371.382233 282.864410,393.342804 290.028809,414.908051 
	C291.600433,419.638672 294.158844,423.441833 298.488861,426.108307 
	C313.478546,435.339264 329.020325,442.739471 347.266052,442.097717 
	C348.831482,442.042664 351.228149,442.753510 351.881836,443.889374 
	C353.922180,447.434875 356.480316,448.184082 360.231384,447.214935 
	C363.581238,446.349487 367.083160,446.092163 370.473999,445.362213 
	C385.146820,442.203644 399.860809,440.031494 414.657623,444.369781 
	C421.104492,446.259979 427.402557,448.657715 434.085236,450.932892 
	C434.304138,449.484863 434.637421,448.061981 434.718323,446.624939 
	C435.616058,430.676666 440.812439,416.163116 449.812531,403.093933 
	C455.915985,394.230957 462.576569,385.751648 469.478516,376.744934 
	C469.769592,376.225830 470.060669,375.706757 470.389740,375.148438 
M307.794312,455.602051 
	C307.658997,455.706390 307.523712,455.810760 307.388428,455.915131 
	C307.621521,455.900604 307.854614,455.886108 307.687897,456.535889 
	C314.915161,467.838013 322.067474,479.189545 329.453461,490.386993 
	C330.517426,492.000000 332.542847,493.279572 334.399780,494.020721 
	C347.824249,499.378387 361.709290,499.060760 375.573242,496.487244 
	C392.431946,493.357849 409.148682,492.529785 425.693298,497.926605 
	C434.085815,500.664215 442.384338,503.689972 451.165558,506.738281 
	C450.671082,505.813446 450.322266,505.164490 449.976593,504.513947 
	C446.347748,497.684387 441.805542,491.163940 439.358124,483.934357 
	C437.090149,477.234894 433.977295,473.525604 427.199585,470.549561 
	C410.280670,463.120575 393.347748,461.964355 375.765381,466.478546 
	C359.425751,470.673676 343.234039,470.574280 327.361572,464.669739 
	C320.754089,462.211792 314.469452,458.885986 307.794312,455.602051 
M573.755920,507.038300 
	C577.293762,505.706543 580.902100,504.535065 584.357788,503.016388 
	C603.846802,494.451477 623.935852,491.749695 644.988037,495.806244 
	C658.221436,498.356201 671.634705,499.605042 684.915039,495.954926 
	C688.801147,494.886871 693.907715,493.990479 695.938599,491.190369 
	C704.162231,479.851837 711.405029,467.801910 719.452637,455.886139 
	C719.397400,455.691315 719.342163,455.496490 719.286987,455.301636 
	C719.219543,455.560120 719.152100,455.818604 718.355469,455.880463 
	C695.325928,468.181549 671.260376,472.759796 645.580444,465.832703 
	C626.506958,460.687683 608.544678,464.355255 591.427002,473.295380 
	C589.559753,474.270630 588.099670,476.596954 587.134827,478.622467 
	C584.110596,484.971222 581.548462,491.539734 578.533325,497.893127 
	C577.013184,501.096405 574.901733,504.019073 572.549316,506.882660 
	C572.470154,507.103638 572.391052,507.324646 572.311829,507.545624 
	C572.537109,507.357605 572.762329,507.169586 573.755920,507.038300 
M591.742859,243.977402 
	C565.666016,219.804489 539.589172,195.631577 513.472778,171.422012 
	C510.396576,173.964752 507.753815,175.953400 505.331604,178.181763 
	C482.063782,199.587341 458.779602,220.976044 435.691833,242.574539 
	C433.806000,244.338730 432.387299,247.600937 432.352814,250.188416 
	C432.062317,272.007874 432.140869,293.832306 432.126007,315.655243 
	C432.125153,316.931213 432.276123,318.207275 432.369598,319.692535 
	C433.979492,319.770966 435.279083,319.888824 436.578735,319.889587 
	C465.897339,319.906982 495.215942,319.911072 524.534546,319.918610 
	C545.857300,319.924072 567.180359,319.970398 588.502380,319.853210 
	C590.010437,319.844940 591.511963,318.637054 593.153320,317.061035 
	C593.155396,294.754120 593.182251,272.447174 593.114868,250.140457 
	C593.109131,248.250809 592.473450,246.363068 591.742859,243.977402 
M632.849976,558.360413 
	C647.166321,546.076721 661.101135,533.398193 673.427673,520.208984 
	C663.014893,519.424988 652.446960,519.677979 642.345459,517.630005 
	C626.009460,514.317993 610.390015,515.405640 595.182556,521.766113 
	C582.547974,527.050476 570.169312,532.944763 557.649597,538.506409 
	C533.337830,549.306458 508.319244,552.800781 482.774567,543.835327 
	C467.678986,538.537109 452.853455,532.320557 438.308411,525.641663 
	C421.464600,517.907227 404.375977,513.574097 385.770630,516.930115 
	C378.287354,518.279907 370.702820,519.284302 363.120697,519.785278 
	C358.862183,520.066589 354.514557,518.999207 349.271698,518.439575 
	C350.471039,519.837891 350.958893,520.459167 351.500061,521.029968 
	C371.355804,541.974487 393.146729,560.702515 416.331024,577.859314 
	C445.733154,599.617554 477.160614,618.126282 509.146362,635.721252 
	C511.028259,636.756531 514.361938,636.613098 516.379517,635.660889 
	C521.899963,633.055725 527.062439,629.697327 532.394348,626.686340 
	C567.571350,606.821289 601.263000,584.771973 632.849976,558.360413 
M525.170410,372.280762 
	C520.981689,365.184448 516.793030,358.088135 512.445190,350.722260 
	C509.421417,355.936005 506.816498,361.139587 503.567261,365.903717 
	C491.044708,384.264404 478.186279,402.396393 465.703369,420.783539 
	C454.668243,437.038025 451.144653,454.937408 456.884216,473.826843 
	C468.482422,511.997803 510.059357,521.761536 538.823853,507.459717 
	C561.316223,496.276398 572.776428,474.367035 570.281738,449.773560 
	C568.849976,435.658813 562.462036,424.000244 554.413635,412.882935 
	C544.775024,399.569214 535.197876,386.211060 525.170410,372.280762 
z"/>
<path fill="#0274B0" opacity="1.000000" stroke="none" 
	d="
M595.987183,420.061584 
	C615.494263,413.106964 635.196472,413.848694 655.137512,418.066162 
	C663.352966,419.803711 671.806641,420.414734 680.710938,421.554016 
	C681.415283,421.733185 681.577759,421.877228 682.109985,421.751404 
	C682.640564,419.536224 682.973083,417.571777 682.973999,415.607239 
	C683.002075,352.297852 682.998108,288.988464 682.998901,225.679077 
	C682.998901,223.591431 682.998901,221.503769 682.998901,219.393814 
	C685.183105,219.098770 686.574402,218.910843 687.965698,218.722900 
	C687.955566,218.488724 687.945374,218.254532 687.935242,218.020355 
	C685.977051,218.020355 684.018799,218.020355 681.856323,217.996368 
	C681.652100,217.972382 681.252136,217.876480 681.252136,217.876480 
	C686.794189,217.592026 692.335144,217.282745 697.878906,217.036697 
	C699.800110,216.951447 701.728271,217.023117 704.752075,217.023117 
	C664.472473,192.600662 625.080627,168.716492 585.021973,144.428024 
	C585.021973,147.849762 585.021973,150.686493 585.021973,154.618042 
	C576.119385,149.294601 568.055725,144.544861 560.063354,139.678024 
	C545.352417,130.719955 530.658813,121.732635 516.025024,112.649483 
	C513.972168,111.375320 512.694885,111.259315 510.423279,112.634705 
	C488.610596,125.841545 466.657654,138.816635 444.740784,151.851288 
	C443.496918,152.591080 442.217407,153.270981 440.458130,154.256897 
	C440.271515,150.967133 440.110138,148.122101 439.922882,144.821243 
	C428.837494,151.369385 418.173950,157.629120 407.548279,163.952560 
	C379.632263,180.565567 351.725555,197.194336 323.848633,213.872803 
	C322.508728,214.674454 321.489471,216.011993 321.030457,217.423370 
	C326.851868,217.856506 331.963654,217.966232 337.343933,218.353699 
	C339.220245,218.888428 340.828064,219.145447 342.996338,219.492050 
	C342.996338,221.546738 342.996277,223.505783 342.996338,225.464828 
	C342.997894,288.937439 342.989349,352.410065 343.047180,415.882660 
	C343.049042,417.924225 343.731384,419.965179 344.357544,421.966492 
	C344.792480,421.899384 344.966431,421.872223 345.140350,421.845032 
	C355.766052,420.217438 366.353119,418.233368 377.029816,417.076141 
	C385.418182,416.166901 393.923553,416.388916 402.365479,415.907776 
	C411.784760,415.370880 420.832092,417.115875 429.780273,419.785461 
	C430.486755,419.996246 431.357239,419.657349 432.556763,418.903992 
	C433.621124,412.590057 434.602051,406.960663 434.858917,401.298431 
	C435.189697,394.006439 435.101654,386.683044 434.871399,379.383362 
	C434.759460,375.835114 436.029083,374.687561 439.461975,374.893097 
	C443.433472,375.130920 447.435028,375.079681 451.414185,374.920044 
	C455.975891,374.737030 460.527283,374.297302 465.487457,373.974365 
	C467.404419,374.381653 468.917084,374.783661 470.429749,375.185669 
	C470.429749,375.185638 470.389740,375.148438 470.051941,375.252991 
	C469.472046,375.938568 469.230011,376.519653 468.987976,377.100708 
	C462.576569,385.751648 455.915985,394.230957 449.812531,403.093933 
	C440.812439,416.163116 435.616058,430.676666 434.718323,446.624939 
	C434.637421,448.061981 434.304138,449.484863 434.085236,450.932892 
	C427.402557,448.657715 421.104492,446.259979 414.657623,444.369781 
	C399.860809,440.031494 385.146820,442.203644 370.473999,445.362213 
	C367.083160,446.092163 363.581238,446.349487 360.231384,447.214935 
	C356.480316,448.184082 353.922180,447.434875 351.881836,443.889374 
	C351.228149,442.753510 348.831482,442.042664 347.266052,442.097717 
	C329.020325,442.739471 313.478546,435.339264 298.488861,426.108307 
	C294.158844,423.441833 291.600433,419.638672 290.028809,414.908051 
	C282.864410,393.342804 277.550629,371.382233 275.935242,348.651123 
	C275.111359,337.058533 274.566437,325.446136 273.959259,312.914551 
	C274.056885,307.324890 274.090668,302.663361 274.386292,297.683899 
	C274.759521,296.550812 274.968048,295.735718 274.968506,294.920532 
	C274.990295,255.199753 275.002686,215.478943 274.959625,175.758224 
	C274.958313,174.535599 274.360168,173.313629 273.983826,172.027603 
	C273.927338,171.963852 273.919525,171.793686 273.919525,171.793701 
	C285.567871,165.651108 297.103485,159.282242 308.887695,153.412415 
	C334.479034,140.665070 360.191315,128.160217 385.865234,115.578781 
	C426.873901,95.482590 467.873260,75.367027 508.965790,55.443680 
	C510.792725,54.557907 513.861511,54.760895 515.748352,55.686653 
	C564.265076,79.490349 612.698242,103.464272 661.152893,127.394524 
	C689.208496,141.250305 717.249329,155.136505 745.373230,168.852310 
	C748.781921,170.514679 750.284302,172.384171 750.279419,176.349457 
	C750.229065,217.162994 750.525391,257.977234 750.398743,298.790253 
	C750.345520,315.928162 750.250183,333.123657 748.858704,350.185730 
	C746.918030,373.983002 742.065979,397.322845 733.733459,419.796082 
	C732.990356,421.800140 731.072327,423.836670 729.164612,424.861298 
	C720.010254,429.777954 711.018982,435.354980 701.286621,438.723785 
	C693.750854,441.332336 685.188293,440.906281 677.123718,442.108246 
	C675.339966,442.374115 673.307861,443.440613 672.120300,444.783966 
	C668.341980,449.058044 663.805908,446.991974 659.633240,446.483002 
	C649.129517,445.201782 638.720154,442.876617 628.191223,442.142822 
	C615.239563,441.240204 603.067993,445.181610 591.123230,451.163849 
	C590.489807,420.589111 573.117004,398.552246 555.269714,376.745300 
	C554.755066,376.116516 554.309998,375.430878 554.110107,374.403015 
	C554.591980,374.031982 554.796204,374.029602 555.288818,374.329926 
	C565.828674,374.755188 576.082275,375.044708 586.330444,374.912811 
	C590.086121,374.864502 591.149048,376.047638 591.086121,379.728210 
	C590.879395,391.818146 590.973511,403.914001 591.047668,416.006989 
	C591.055847,417.336243 591.682129,418.661682 592.267090,419.996521 
	C592.512390,420.004181 593.003113,420.014069 593.003113,420.014069 
	C593.003113,420.014069 592.993347,420.002808 593.022583,420.303955 
	C594.030212,420.423920 595.008728,420.242767 595.987183,420.061584 
z"/>
<path fill="#0274AF" opacity="1.000000" stroke="none" 
	d="
M632.573853,558.585693 
	C601.263000,584.771973 567.571350,606.821289 532.394348,626.686340 
	C527.062439,629.697327 521.899963,633.055725 516.379517,635.660889 
	C514.361938,636.613098 511.028259,636.756531 509.146362,635.721252 
	C477.160614,618.126282 445.733154,599.617554 416.331024,577.859314 
	C393.146729,560.702515 371.355804,541.974487 351.500061,521.029968 
	C350.958893,520.459167 350.471039,519.837891 349.271698,518.439575 
	C354.514557,518.999207 358.862183,520.066589 363.120697,519.785278 
	C370.702820,519.284302 378.287354,518.279907 385.770630,516.930115 
	C404.375977,513.574097 421.464600,517.907227 438.308411,525.641663 
	C452.853455,532.320557 467.678986,538.537109 482.774567,543.835327 
	C508.319244,552.800781 533.337830,549.306458 557.649597,538.506409 
	C570.169312,532.944763 582.547974,527.050476 595.182556,521.766113 
	C610.390015,515.405640 626.009460,514.317993 642.345459,517.630005 
	C652.446960,519.677979 663.014893,519.424988 673.427673,520.208984 
	C661.101135,533.398193 647.166321,546.076721 632.573853,558.585693 
z"/>
<path fill="#0375B0" opacity="1.000000" stroke="none" 
	d="
M593.016479,317.987000 
	C591.511963,318.637054 590.010437,319.844940 588.502380,319.853210 
	C567.180359,319.970398 545.857300,319.924072 524.534546,319.918610 
	C495.215942,319.911072 465.897339,319.906982 436.578735,319.889587 
	C435.279083,319.888824 433.979492,319.770966 432.369598,319.692535 
	C432.276123,318.207275 432.125153,316.931213 432.126007,315.655243 
	C432.140869,293.832306 432.062317,272.007874 432.352814,250.188416 
	C432.387299,247.600937 433.806000,244.338730 435.691833,242.574539 
	C458.779602,220.976044 482.063782,199.587341 505.331604,178.181763 
	C507.753815,175.953400 510.396576,173.964752 513.472778,171.422012 
	C539.589172,195.631577 565.666016,219.804489 591.911743,244.733963 
	C592.070374,268.095123 592.041016,290.699768 592.091492,313.304260 
	C592.094971,314.865845 592.694214,316.426117 593.016479,317.987000 
M517.193970,237.246704 
	C517.193970,246.161957 517.193970,255.077225 517.193970,263.992065 
	C526.575867,263.992065 535.279175,263.992065 544.861267,263.992065 
	C544.861267,254.552872 544.861267,245.597794 544.562439,235.809937 
	C535.732056,235.636368 526.901794,235.451599 518.070679,235.335022 
	C517.755615,235.330856 517.431641,236.001282 517.193970,237.246704 
M544.641785,301.854889 
	C544.641785,292.442200 544.641785,283.029510 544.641785,273.568268 
	C535.155701,273.568268 526.453857,273.568268 517.138184,273.568268 
	C517.138184,283.474823 517.138184,293.055786 517.528381,303.384369 
	C526.200256,303.539581 534.871948,303.713867 543.544617,303.793396 
	C543.974976,303.797363 544.412964,302.976593 544.641785,301.854889 
M481.494720,274.083557 
	C481.494720,283.983826 481.494720,293.884094 481.494720,303.606201 
	C490.109253,303.606201 498.143829,303.675629 506.173370,303.505249 
	C507.033539,303.486969 508.583984,302.084412 508.598480,301.301514 
	C508.769257,292.056030 508.708282,282.806305 508.708282,273.426056 
	C499.374359,273.426056 490.745758,273.426056 481.494720,274.083557 
M484.762878,236.030960 
	C483.612305,236.914536 481.490753,237.768341 481.462585,238.686356 
	C481.204956,247.083237 481.311096,255.491257 481.311096,263.910309 
	C490.674988,263.910309 499.511200,263.910309 508.395142,263.910309 
	C508.395142,254.388458 508.395142,245.351791 508.395142,236.036194 
	C500.615723,236.036194 493.163177,236.036194 484.762878,236.030960 
z"/>
<path fill="#0275AF" opacity="1.000000" stroke="none" 
	d="
M525.382263,372.576447 
	C535.197876,386.211060 544.775024,399.569214 554.413635,412.882935 
	C562.462036,424.000244 568.849976,435.658813 570.281738,449.773560 
	C572.776428,474.367035 561.316223,496.276398 538.823853,507.459717 
	C510.059357,521.761536 468.482422,511.997803 456.884216,473.826843 
	C451.144653,454.937408 454.668243,437.038025 465.703369,420.783539 
	C478.186279,402.396393 491.044708,384.264404 503.567261,365.903717 
	C506.816498,361.139587 509.421417,355.936005 512.445190,350.722260 
	C516.793030,358.088135 520.981689,365.184448 525.382263,372.576447 
M475.035187,445.684509 
	C470.046936,461.479584 477.787872,478.858887 489.754150,486.145508 
	C501.681793,493.408600 515.275879,494.121185 525.785278,486.098969 
	C512.365662,486.805603 500.777130,482.752686 491.517883,473.073914 
	C482.393951,463.536499 478.742920,451.708496 477.812012,438.645355 
	C476.965057,440.738525 476.118073,442.831696 475.035187,445.684509 
z"/>
<path fill="#0475AF" opacity="1.000000" stroke="none" 
	d="
M719.009766,456.014496 
	C711.405029,467.801910 704.162231,479.851837 695.938599,491.190369 
	C693.907715,493.990479 688.801147,494.886871 684.915039,495.954926 
	C671.634705,499.605042 658.221436,498.356201 644.988037,495.806244 
	C623.935852,491.749695 603.846802,494.451477 584.357788,503.016388 
	C580.902100,504.535065 577.293762,505.706543 573.389404,507.031616 
	C573.022888,507.024902 573.057678,507.068634 573.057617,507.068604 
	C574.901733,504.019073 577.013184,501.096405 578.533325,497.893127 
	C581.548462,491.539734 584.110596,484.971222 587.134827,478.622467 
	C588.099670,476.596954 589.559753,474.270630 591.427002,473.295380 
	C608.544678,464.355255 626.506958,460.687683 645.580444,465.832703 
	C671.260376,472.759796 695.325928,468.181549 718.701660,455.962646 
	C719.047852,456.044830 719.009766,456.014496 719.009766,456.014496 
z"/>
<path fill="#0476B0" opacity="1.000000" stroke="none" 
	d="
M308.038025,455.954803 
	C314.469452,458.885986 320.754089,462.211792 327.361572,464.669739 
	C343.234039,470.574280 359.425751,470.673676 375.765381,466.478546 
	C393.347748,461.964355 410.280670,463.120575 427.199585,470.549561 
	C433.977295,473.525604 437.090149,477.234894 439.358124,483.934357 
	C441.805542,491.163940 446.347748,497.684387 449.976593,504.513947 
	C450.322266,505.164490 450.671082,505.813446 451.165558,506.738281 
	C442.384338,503.689972 434.085815,500.664215 425.693298,497.926605 
	C409.148682,492.529785 392.431946,493.357849 375.573242,496.487244 
	C361.709290,499.060760 347.824249,499.378387 334.399780,494.020721 
	C332.542847,493.279572 330.517426,492.000000 329.453461,490.386993 
	C322.067474,479.189545 314.915161,467.838013 307.875549,456.224915 
	C308.063202,455.913910 308.038025,455.954803 308.038025,455.954803 
z"/>
<path fill="#135175" opacity="1.000000" stroke="none" 
	d="
M345.100586,421.391266 
	C344.966431,421.872223 344.792480,421.899384 344.322266,421.497681 
	C344.025970,353.556396 344.025970,286.043945 344.025970,218.075958 
	C341.312805,218.075958 339.194153,218.075958 337.075470,218.075958 
	C331.963654,217.966232 326.851868,217.856506 321.377197,217.558533 
	C328.803253,217.370300 336.592102,217.370300 345.060791,217.370300 
	C345.060791,285.179901 345.060791,353.058685 345.100586,421.391266 
z"/>
<path fill="#135175" opacity="1.000000" stroke="none" 
	d="
M681.757263,422.002075 
	C681.577759,421.877228 681.415283,421.733185 681.171387,421.440735 
	C681.062439,353.815369 681.051941,286.319183 681.146851,218.349762 
	C681.252136,217.876480 681.652100,217.972382 681.819214,218.461578 
	C681.991882,260.860718 682.027527,302.770691 681.991882,344.680603 
	C681.969971,370.454468 681.839172,396.228241 681.757263,422.002075 
z"/>
<path fill="#2F8FC0" opacity="1.000000" stroke="none" 
	d="
M465.083160,373.969086 
	C460.527283,374.297302 455.975891,374.737030 451.414185,374.920044 
	C447.435028,375.079681 443.433472,375.130920 439.461975,374.893097 
	C436.029083,374.687561 434.759460,375.835114 434.871399,379.383362 
	C435.101654,386.683044 435.189697,394.006439 434.858917,401.298431 
	C434.602051,406.960663 433.621124,412.590057 432.782288,418.550690 
	C432.562195,404.433044 432.521851,389.998718 432.750305,375.648376 
	C433.019165,386.494995 433.019165,397.257660 433.019165,408.020325 
	C433.993439,397.585663 434.015594,387.150024 433.945496,376.715057 
	C433.940613,375.989655 433.250092,375.268890 432.878387,374.545959 
	C432.878387,374.545959 432.681488,374.378082 433.213989,374.222168 
	C444.192078,374.033875 454.637604,374.001465 465.083160,373.969086 
z"/>
<path fill="#135175" opacity="1.000000" stroke="none" 
	d="
M273.204041,267.007629 
	C273.208527,235.450882 273.213043,203.894119 273.568542,172.065521 
	C273.919525,171.793686 273.927338,171.963852 273.957092,172.487778 
	C273.978973,204.328232 273.971039,235.644775 273.773010,266.967590 
	C273.582916,266.973877 273.204041,267.007629 273.204041,267.007629 
z"/>
<path fill="#1E688D" opacity="1.000000" stroke="none" 
	d="
M593.010254,419.544128 
	C593.003113,420.014069 592.512390,420.004181 592.256287,419.528992 
	C592.000183,404.186371 592.000183,389.318970 592.000183,374.027252 
	C579.163330,374.027252 567.081848,374.027252 555.000366,374.027252 
	C554.796204,374.029602 554.591980,374.031982 554.081787,374.048279 
	C554.065430,373.728638 554.354126,373.104492 554.645142,373.103394 
	C567.255371,373.054871 579.865784,373.061554 593.017334,373.061554 
	C593.017334,388.575378 593.017334,403.824768 593.010254,419.544128 
z"/>
<path fill="#1E688D" opacity="1.000000" stroke="none" 
	d="
M593.084839,317.524017 
	C592.694214,316.426117 592.094971,314.865845 592.091492,313.304260 
	C592.041016,290.699768 592.070374,268.095123 592.105469,244.982483 
	C592.473450,246.363068 593.109131,248.250809 593.114868,250.140457 
	C593.182251,272.447174 593.155396,294.754120 593.084839,317.524017 
z"/>
<path fill="#1E688D" opacity="1.000000" stroke="none" 
	d="
M273.123413,267.468414 
	C273.204041,267.007629 273.582916,266.973877 273.807861,267.439453 
	C274.063354,277.937317 274.093903,287.969574 274.124451,298.001862 
	C274.090668,302.663361 274.056885,307.324890 274.021240,312.443054 
	C273.693848,297.909576 273.368347,282.919373 273.123413,267.468414 
z"/>
<path fill="#1E688D" opacity="1.000000" stroke="none" 
	d="
M465.487457,373.974365 
	C454.637604,374.001465 444.192078,374.033875 433.260254,374.101379 
	C433.741089,373.745941 434.707062,373.019592 435.675537,373.016296 
	C446.653290,372.978882 457.631836,373.020752 468.608643,373.160889 
	C469.405579,373.171051 470.190613,374.110077 470.705475,374.901459 
	C468.917084,374.783661 467.404419,374.381653 465.487457,373.974365 
z"/>
<path fill="#1E688D" opacity="1.000000" stroke="none" 
	d="
M595.611816,420.021179 
	C595.008728,420.242767 594.030212,420.423920 593.020569,420.296753 
	C593.738403,419.985870 594.487488,419.983337 595.611816,420.021179 
z"/>
<path fill="#1E688D" opacity="1.000000" stroke="none" 
	d="
M469.233246,376.922821 
	C469.230011,376.519653 469.472046,375.938568 470.032928,375.272583 
	C470.060669,375.706757 469.769592,376.225830 469.233246,376.922821 
z"/>
<path fill="#0476B0" opacity="1.000000" stroke="none" 
	d="
M308.075439,455.892761 
	C307.854614,455.886108 307.621521,455.900604 307.388428,455.915131 
	C307.523712,455.810760 307.658997,455.706390 307.916168,455.778442 
	C308.038025,455.954803 308.063202,455.913910 308.075439,455.892761 
z"/>
<path fill="#0475AF" opacity="1.000000" stroke="none" 
	d="
M719.066284,456.060974 
	C719.152100,455.818604 719.219543,455.560120 719.286987,455.301636 
	C719.342163,455.496490 719.397400,455.691315 719.231201,455.950317 
	C719.009766,456.014496 719.047852,456.044830 719.066284,456.060974 
z"/>
<path fill="#0475AF" opacity="1.000000" stroke="none" 
	d="
M573.005249,507.003235 
	C572.762329,507.169586 572.537109,507.357605 572.311890,507.545654 
	C572.391052,507.324646 572.470154,507.103638 572.803467,506.975647 
	C573.057678,507.068634 573.022888,507.024902 573.005249,507.003235 
z"/>
<path fill="#028ACF" opacity="1.000000" stroke="none" 
	d="
M682.109985,421.751404 
	C681.839172,396.228241 681.969971,370.454468 681.991882,344.680603 
	C682.027527,302.770691 681.991882,260.860718 682.023438,218.485565 
	C684.018799,218.020355 685.977051,218.020355 687.935242,218.020355 
	C687.945374,218.254532 687.955566,218.488724 687.965698,218.722900 
	C686.574402,218.910843 685.183105,219.098770 682.998901,219.393814 
	C682.998901,221.503769 682.998901,223.591431 682.998901,225.679077 
	C682.998108,288.988464 683.002075,352.297852 682.973999,415.607239 
	C682.973083,417.571777 682.640564,419.536224 682.109985,421.751404 
z"/>
<path fill="#028ACF" opacity="1.000000" stroke="none" 
	d="
M337.343933,218.353699 
	C339.194153,218.075958 341.312805,218.075958 344.025970,218.075958 
	C344.025970,286.043945 344.025970,353.556396 344.061249,421.537659 
	C343.731384,419.965179 343.049042,417.924225 343.047180,415.882660 
	C342.989349,352.410065 342.997894,288.937439 342.996338,225.464828 
	C342.996277,223.505783 342.996338,221.546738 342.996338,219.492050 
	C340.828064,219.145447 339.220245,218.888428 337.343933,218.353699 
z"/>
<path fill="#028ACF" opacity="1.000000" stroke="none" 
	d="
M274.386292,297.683899 
	C274.093903,287.969574 274.063354,277.937317 273.997986,267.433167 
	C273.971039,235.644775 273.978973,204.328232 274.013580,172.551529 
	C274.360168,173.313629 274.958313,174.535599 274.959625,175.758224 
	C275.002686,215.478943 274.990295,255.199753 274.968506,294.920532 
	C274.968048,295.735718 274.759521,296.550812 274.386292,297.683899 
z"/>
<path fill="#028ACF" opacity="1.000000" stroke="none" 
	d="
M555.288818,374.329926 
	C567.081848,374.027252 579.163330,374.027252 592.000183,374.027252 
	C592.000183,389.318970 592.000183,404.186371 592.010986,419.521332 
	C591.682129,418.661682 591.055847,417.336243 591.047668,416.006989 
	C590.973511,403.914001 590.879395,391.818146 591.086121,379.728210 
	C591.149048,376.047638 590.086121,374.864502 586.330444,374.912811 
	C576.082275,375.044708 565.828674,374.755188 555.288818,374.329926 
z"/>
<path fill="#F5F8FA" opacity="1.000000" stroke="none" 
	d="
M481.805939,273.754822 
	C490.745758,273.426056 499.374359,273.426056 508.708282,273.426056 
	C508.708282,282.806305 508.769257,292.056030 508.598480,301.301514 
	C508.583984,302.084412 507.033539,303.486969 506.173370,303.505249 
	C498.143829,303.675629 490.109253,303.606201 481.494720,303.606201 
	C481.494720,293.884094 481.494720,283.983826 481.805939,273.754822 
z"/>
<path fill="#F8FBFC" opacity="1.000000" stroke="none" 
	d="
M517.138184,302.636749 
	C517.138184,293.055786 517.138184,283.474823 517.138184,273.568268 
	C526.453857,273.568268 535.155701,273.568268 544.641785,273.568268 
	C544.641785,283.029510 544.641785,292.442200 544.301392,302.322235 
	C535.020020,302.738617 526.079102,302.687683 517.138184,302.636749 
z"/>
<path fill="#F8FBFC" opacity="1.000000" stroke="none" 
	d="
M485.236755,236.033569 
	C493.163177,236.036194 500.615723,236.036194 508.395142,236.036194 
	C508.395142,245.351791 508.395142,254.388458 508.395142,263.910309 
	C499.511200,263.910309 490.674988,263.910309 481.311096,263.910309 
	C481.311096,255.491257 481.204956,247.083237 481.462585,238.686356 
	C481.490753,237.768341 483.612305,236.914536 485.236755,236.033569 
z"/>
<path fill="#F8FBFC" opacity="1.000000" stroke="none" 
	d="
M544.861267,236.642700 
	C544.861267,245.597794 544.861267,254.552872 544.861267,263.992065 
	C535.279175,263.992065 526.575867,263.992065 517.193970,263.992065 
	C517.193970,255.077225 517.193970,246.161957 517.603638,236.695892 
	C526.962585,236.310959 535.911926,236.476837 544.861267,236.642700 
z"/>
<path fill="#1E688D" opacity="1.000000" stroke="none" 
	d="
M517.333252,303.010559 
	C526.079102,302.687683 535.020020,302.738617 544.404175,302.664703 
	C544.412964,302.976593 543.974976,303.797363 543.544617,303.793396 
	C534.871948,303.713867 526.200256,303.539581 517.333252,303.010559 
z"/>
<path fill="#1E688D" opacity="1.000000" stroke="none" 
	d="
M544.711853,236.226318 
	C535.911926,236.476837 526.962585,236.310959 517.562500,236.251190 
	C517.431641,236.001282 517.755615,235.330856 518.070679,235.335022 
	C526.901794,235.451599 535.732056,235.636368 544.711853,236.226318 
z"/>
<path fill="#F8FBFC" opacity="1.000000" stroke="none" 
	d="
M475.153137,445.304688 
	C476.118073,442.831696 476.965057,440.738525 477.812012,438.645355 
	C478.742920,451.708496 482.393951,463.536499 491.517883,473.073914 
	C500.777130,482.752686 512.365662,486.805603 525.785278,486.098969 
	C515.275879,494.121185 501.681793,493.408600 489.754150,486.145508 
	C477.787872,478.858887 470.046936,461.479584 475.153137,445.304688 
z"/>
<path fill="#0274AF" opacity="1.000000" stroke="none" 
	d="
M432.882019,374.613831 
	C433.250092,375.268890 433.940613,375.989655 433.945496,376.715057 
	C434.015594,387.150024 433.993439,397.585663 433.019165,408.020325 
	C433.019165,397.257660 433.019165,386.494995 432.903717,375.254456 
	C432.788269,374.776611 432.885681,374.681732 432.882019,374.613831 
z"/>
</svg>
